HIERARCHY
ROOT Root
{
  OFFSET 0.0 0.0 0.0
  CHANNELS 6 Xposition Yposition Zposition Zrotation Yrotation Xrotation
  JOINT Hips
  {
    OFFSET 0.0 100.0 0.0
    CHANNELS 6 Xposition Yposition Zposition Zrotation Yrotation Xrotation
    JOINT Spine1
    {
      OFFSET -0.013727 5.003763 -0.053727
      CHANNELS 3 Zrotation Yrotation Xrotation
      JOINT Spine2
      {
        OFFSET -0.0 7.125301 -0.029825
        CHANNELS 3 Zrotation Yrotation Xrotation
        JOINT Chest
        {
          OFFSET -1e-06 7.550063 -0.815971
          CHANNELS 3 Zrotation Yrotation Xrotation
          JOINT Neck1
          {
            OFFSET -0.181677 26.311295 -0.553348
            CHANNELS 3 Zrotation Yrotation Xrotation
            JOINT Neck2
            {
              OFFSET -3e-06 7.709397 2.302585
              CHANNELS 3 Zrotation Yrotation Xrotation
              JOINT Head
              {
                OFFSET -5e-06 6.128916 1.953709
                CHANNELS 3 Zrotation Yrotation Xrotation
                JOINT HeadEnd
                {
                  OFFSET 0.003598 16.065403 -1.835379
                  CHANNELS 3 Zrotation Yrotation Xrotation
                }
                JOINT Jaw
                {
                  OFFSET 0.002637 0.475592 3.094941
                  CHANNELS 3 Zrotation Yrotation Xrotation
                }
                JOINT LeftEye
                {
                  OFFSET 3.206381 5.380205 7.586883
                  CHANNELS 3 Zrotation Yrotation Xrotation
                }
                JOINT RightEye
                {
                  OFFSET -3.22244 5.361869 7.558234
                  CHANNELS 3 Zrotation Yrotation Xrotation
                }
              }
            }
          }
          JOINT LeftShoulder
          {
            OFFSET 1.621652 23.237164 5.113413
            CHANNELS 3 Zrotation Yrotation Xrotation
            JOINT LeftArm
            {
              OFFSET 14.919846 2e-06 -5.502326
              CHANNELS 3 Zrotation Yrotation Xrotation
              JOINT LeftForeArm
              {
                OFFSET 28.739307 0.0 -0.002588
                CHANNELS 3 Zrotation Yrotation Xrotation
                JOINT LeftHand
                {
                  OFFSET 27.093981 -1e-06 0.002609
                  CHANNELS 3 Zrotation Yrotation Xrotation
                  JOINT LeftHandThumb1
                  {
                    OFFSET 2.276482 -1.392045 3.191413
                    CHANNELS 3 Zrotation Yrotation Xrotation
                    JOINT LeftHandThumb2
                    {
                      OFFSET 4.012836 -1.828127 1.641654
                      CHANNELS 3 Zrotation Yrotation Xrotation
                      JOINT LeftHandThumb3
                      {
                        OFFSET 2.798515 0.0 -3e-06
                        CHANNELS 3 Zrotation Yrotation Xrotation
                        JOINT LeftHandThumbEnd
                        {
                          OFFSET 3.180793 -4e-06 4e-06
                          CHANNELS 3 Zrotation Yrotation Xrotation
                        }
                      }
                    }
                  }
                  JOINT LeftHandIndex1
                  {
                    OFFSET 3.247555 -0.531998 2.296169
                    CHANNELS 3 Zrotation Yrotation Xrotation
                    JOINT LeftHandIndex2
                    {
                      OFFSET 6.364578 0.01206 0.1786
                      CHANNELS 3 Zrotation Yrotation Xrotation
                      JOINT LeftHandIndex3
                      {
                        OFFSET 3.662364 0.0 0.0
                        CHANNELS 3 Zrotation Yrotation Xrotation
                        JOINT LeftHandIndex4
                        {
                          OFFSET 2.329242 4e-06 4e-06
                          CHANNELS 3 Zrotation Yrotation Xrotation
                          JOINT LeftHandIndexEnd
                          {
                            OFFSET 2.759615 -0.180537 -0.113024
                            CHANNELS 3 Zrotation Yrotation Xrotation
                          }
                        }
                      }
                    }
                  }
                  JOINT LeftHandMiddle1
                  {
                    OFFSET 3.163495 0.240981 1.000332
                    CHANNELS 3 Zrotation Yrotation Xrotation
                    JOINT LeftHandMiddle2
                    {
                      OFFSET 6.19078 -0.259278 -1.002548
                      CHANNELS 3 Zrotation Yrotation Xrotation
                      JOINT LeftHandMiddle3
                      {
                        OFFSET 4.35652 -4e-06 -1e-06
                        CHANNELS 3 Zrotation Yrotation Xrotation
                        JOINT LeftHandMiddle4
                        {
                          OFFSET 2.996877 -8e-06 0.0
                          CHANNELS 3 Zrotation Yrotation Xrotation
                          JOINT LeftHandMiddleEnd
                          {
                            OFFSET 2.304287 -0.294569 -0.031741
                            CHANNELS 3 Zrotation Yrotation Xrotation
                          }
                        }
                      }
                    }
                  }
                  JOINT LeftHandRing1
                  {
                    OFFSET 2.882643 -0.053652 -0.322543
                    CHANNELS 3 Zrotation Yrotation Xrotation
                    JOINT LeftHandRing2
                    {
                      OFFSET 5.854541 -0.486202 -1.373841
                      CHANNELS 3 Zrotation Yrotation Xrotation
                      JOINT LeftHandRing3
                      {
                        OFFSET 4.350578 0.0 3e-06
                        CHANNELS 3 Zrotation Yrotation Xrotation
                        JOINT LeftHandRing4
                        {
                          OFFSET 2.651321 7e-06 2e-06
                          CHANNELS 3 Zrotation Yrotation Xrotation
                          JOINT LeftHandRingEnd
                          {
                            OFFSET 1.936105 0.077687 -7.1e-05
                            CHANNELS 3 Zrotation Yrotation Xrotation
                          }
                        }
                      }
                    }
                  }
                  JOINT LeftHandPinky1
                  {
                    OFFSET 2.8655 -0.310005 -1.600378
                    CHANNELS 3 Zrotation Yrotation Xrotation
                    JOINT LeftHandPinky2
                    {
                      OFFSET 5.087849 -1.331141 -1.77123
                      CHANNELS 3 Zrotation Yrotation Xrotation
                      JOINT LeftHandPinky3
                      {
                        OFFSET 3.070974 4e-06 0.0
                        CHANNELS 3 Zrotation Yrotation Xrotation
                        JOINT LeftHandPinky4
                        {
                          OFFSET 1.549672 0.0 1e-06
                          CHANNELS 3 Zrotation Yrotation Xrotation
                          JOINT LeftHandPinkyEnd
                          {
                            OFFSET 1.944893 -0.157802 0.057219
                            CHANNELS 3 Zrotation Yrotation Xrotation
                          }
                        }
                      }
                    }
                  }
                }
              }
            }
          }
          JOINT RightShoulder
          {
            OFFSET -1.380118 23.180309 5.214158
            CHANNELS 3 Zrotation Yrotation Xrotation
            JOINT RightArm
            {
              OFFSET -15.037196 1.2e-05 -5.545604
              CHANNELS 3 Zrotation Yrotation Xrotation
              JOINT RightForeArm
              {
                OFFSET -28.736639 2e-06 -0.002597
                CHANNELS 3 Zrotation Yrotation Xrotation
                JOINT RightHand
                {
                  OFFSET -27.133619 -0.0 0.002613
                  CHANNELS 3 Zrotation Yrotation Xrotation
                  JOINT RightHandThumb1
                  {
                    OFFSET -2.274032 -1.383988 3.163127
                    CHANNELS 3 Zrotation Yrotation Xrotation
                    JOINT RightHandThumb2
                    {
                      OFFSET -4.011429 -1.827466 1.640914
                      CHANNELS 3 Zrotation Yrotation Xrotation
                      JOINT RightHandThumb3
                      {
                        OFFSET -2.794935 -4e-06 -3e-06
                        CHANNELS 3 Zrotation Yrotation Xrotation
                        JOINT RightHandThumbEnd
                        {
                          OFFSET -3.183852 4e-06 1e-06
                          CHANNELS 3 Zrotation Yrotation Xrotation
                        }
                      }
                    }
                  }
                  JOINT RightHandIndex1
                  {
                    OFFSET -3.253266 -0.520057 2.282866
                    CHANNELS 3 Zrotation Yrotation Xrotation
                    JOINT RightHandIndex2
                    {
                      OFFSET -6.341917 0.012471 0.178266
                      CHANNELS 3 Zrotation Yrotation Xrotation
                      JOINT RightHandIndex3
                      {
                        OFFSET -3.654871 -8e-06 -0.0
                        CHANNELS 3 Zrotation Yrotation Xrotation
                        JOINT RightHandIndex4
                        {
                          OFFSET -2.327586 0.0 1e-06
                          CHANNELS 3 Zrotation Yrotation Xrotation
                          JOINT RightHandIndexEnd
                          {
                            OFFSET -2.76179 -0.180656 -0.113078
                            CHANNELS 3 Zrotation Yrotation Xrotation
                          }
                        }
                      }
                    }
                  }
                  JOINT RightHandMiddle1
                  {
                    OFFSET -3.168106 0.246593 1.00103
                    CHANNELS 3 Zrotation Yrotation Xrotation
                    JOINT RightHandMiddle2
                    {
                      OFFSET -6.180828 -0.258836 -1.000895
                      CHANNELS 3 Zrotation Yrotation Xrotation
                      JOINT RightHandMiddle3
                      {
                        OFFSET -4.348901 0.0 -0.0
                        CHANNELS 3 Zrotation Yrotation Xrotation
                        JOINT RightHandMiddle4
                        {
                          OFFSET -3.00024 -4e-06 -2e-06
                          CHANNELS 3 Zrotation Yrotation Xrotation
                          JOINT RightHandMiddleEnd
                          {
                            OFFSET -2.30252 -0.29437 -0.031706
                            CHANNELS 3 Zrotation Yrotation Xrotation
                          }
                        }
                      }
                    }
                  }
                  JOINT RightHandRing1
                  {
                    OFFSET -2.88569 -0.067952 -0.308858
                    CHANNELS 3 Zrotation Yrotation Xrotation
                    JOINT RightHandRing2
                    {
                      OFFSET -5.854198 -0.48613 -1.373731
                      CHANNELS 3 Zrotation Yrotation Xrotation
                      JOINT RightHandRing3
                      {
                        OFFSET -4.33881 -4e-06 -0.0
                        CHANNELS 3 Zrotation Yrotation Xrotation
                        JOINT RightHandRing4
                        {
                          OFFSET -2.654903 -4e-06 4e-06
                          CHANNELS 3 Zrotation Yrotation Xrotation
                          JOINT RightHandRingEnd
                          {
                            OFFSET -1.933568 0.077527 -5.2e-05
                            CHANNELS 3 Zrotation Yrotation Xrotation
                          }
                        }
                      }
                    }
                  }
                  JOINT RightHandPinky1
                  {
                    OFFSET -2.866425 -0.342796 -1.584145
                    CHANNELS 3 Zrotation Yrotation Xrotation
                    JOINT RightHandPinky2
                    {
                      OFFSET -5.091371 -1.332055 -1.772385
                      CHANNELS 3 Zrotation Yrotation Xrotation
                      JOINT RightHandPinky3
                      {
                        OFFSET -3.062664 -4e-06 1e-06
                        CHANNELS 3 Zrotation Yrotation Xrotation
                        JOINT RightHandPinky4
                        {
                          OFFSET -1.546529 4e-06 -2e-06
                          CHANNELS 3 Zrotation Yrotation Xrotation
                          JOINT RightHandPinkyEnd
                          {
                            OFFSET -1.945119 -0.157718 0.057211
                            CHANNELS 3 Zrotation Yrotation Xrotation
                          }
                        }
                      }
                    }
                  }
                }
              }
            }
          }
        }
      }
    }
    JOINT LeftLeg
    {
      OFFSET 10.043214 -8.434526 2.595655
      CHANNELS 3 Zrotation Yrotation Xrotation
      JOINT LeftShin
      {
        OFFSET -1e-06 -43.221752 -0.802913
        CHANNELS 3 Zrotation Yrotation Xrotation
        JOINT LeftFoot
        {
          OFFSET 1e-06 -42.155094 -3.481523
          CHANNELS 3 Zrotation Yrotation Xrotation
          JOINT LeftToeBase
          {
            OFFSET 0.0 -5.059472 13.231529
            CHANNELS 3 Zrotation Yrotation Xrotation
            JOINT LeftToeEnd
            {
              OFFSET -0.009607 -1.647619 6.513017
              CHANNELS 3 Zrotation Yrotation Xrotation
            }
          }
        }
      }
    }
    JOINT RightLeg
    {
      OFFSET -10.047278 -8.29526 2.620317
      CHANNELS 3 Zrotation Yrotation Xrotation
      JOINT RightShin
      {
        OFFSET 1e-06 -43.362206 -0.805556
        CHANNELS 3 Zrotation Yrotation Xrotation
        JOINT RightFoot
        {
          OFFSET 2e-06 -42.117393 -3.478398
          CHANNELS 3 Zrotation Yrotation Xrotation
          JOINT RightToeBase
          {
            OFFSET -0.0 -5.079609 13.284196
            CHANNELS 3 Zrotation Yrotation Xrotation
            JOINT RightToeEnd
            {
              OFFSET 0.009532 -1.634378 6.460591
              CHANNELS 3 Zrotation Yrotation Xrotation
            }
          }
        }
      }
    }
  }
}
MOTION
Frames: 4
Frame Time: 0.03333333333333333
0.0 0.0 0.0 0.0 -0.0 0.0 -2.91355 99.88707 2.046068 0.496258 -0.192792 3.428349 0.18707 0.329874 -3.972926 -0.225905 0.058818 -6.145095 1.029621 -1.560905 13.549662 -1.516276 2.847745 -3.139839 -0.497124 0.949035 -3.507132 1.145551 -0.795982 -5.982237 7.7e-05 -2.2e-05 6e-06 0.01575 -0.009071 -0.002554 0.752863 -3.720644 -10.518017 -0.721629 3.710133 -10.502339 -22.948267 -4.490554 14.486296 -48.089592 -0.716876 28.795071 1.452206 -39.238949 -0.160959 -8.184063 32.987953 -22.005384 -5.882106 9.86129 0.702592 -10.936871 -0.360575 7.156208 -1e-06 8.774829 -1e-06 -17.279711 17.26086 5.333528 -1.844032 2.498506 -2.507277 -10.163598 4.678948 4.621109 -20.976021 -1e-06 3e-06 -21.226284 2.451702 -3.594001 -0.0 -6e-06 -0.0 -1.362682 2.240798 -0.746324 -21.334913 0.584912 3.008324 -13.821213 -0.0 3e-06 -23.887171 -0.249074 -0.839482 -58.981541 2.375047 -1.336905 -0.294025 1.679688 0.833255 -14.218207 0.093217 1.300582 -34.212048 -0.287557 0.96717 -20.033211 0.96454 1.212841 -0.0 0.0 1e-06 -3.440388 0.788235 0.501656 -15.928183 -3.167308 2.999708 -6.338826 0.0 2e-06 -18.123444 3.648188 -4.905672 -2e-06 -1e-06 -2e-06 12.559808 13.060967 14.742525 59.476299 7.932461 19.314396 0.233466 36.429062 0.332083 8.414893 -1.994586 20.447889 2.243543 -5.255039 -3.180157 14.282895 -0.826597 6.952501 -1e-06 -12.69061 1e-06 16.356613 -17.912043 2.570455 1.665667 -1.955922 -2.878298 4.7278 -4.170589 4.993922 11.020529 2e-06 -3e-06 12.109056 -3.735718 -2.866787 0.0 0.0 -1e-06 1.291986 -1.92855 -1.49809 14.800131 0.567467 3.865606 14.242577 -1.341738 -6.66066 19.631973 0.143925 -0.648248 50.251968 -0.903745 -6.804497 0.353029 -1.511151 -0.03194 20.222794 3.68431 2.316629 18.787273 4e-06 -3e-06 10.751629 -0.479868 1.397903 -2e-06 -0.0 1e-06 3.273807 0.305947 -0.580112 21.486816 11.830378 2.26613 8.162928 1e-06 -2e-06 18.399088 -3.798986 -4.940581 5e-06 0.0 -2e-06 5.065561 21.64002 -0.694407 0.004758 -0.131057 3.928324 -7.917993 6.955691 -5.028418 1.666643 -1.890529 1.232236 0.0 -0.0 2e-06 -7.008491 -17.039101 -5.196436 0.008473 -0.117369 8.881112 9.357983 -3.621992 -5.258212 -1.413313 0.971856 0.701401 -0.0 0.0 -1e-06 
0.0 0.0 0.0 0.0 -0.0 0.0 -2.929753 99.919701 2.077737 0.497079 -0.088614 3.453522 0.169043 0.340775 -3.965429 -0.225632 0.101829 -6.128713 1.033362 -1.59213 13.513883 -1.512123 2.880696 -3.129725 -0.509745 0.923738 -3.500334 1.078199 -0.794352 -5.920198 7.7e-05 -2.2e-05 6e-06 0.012463 -0.005259 -0.002218 0.749547 -3.714364 -10.498066 -0.72475 3.710772 -10.484995 -23.000113 -4.469785 14.617792 -47.975101 -0.656289 28.669552 1.480135 -39.308178 -0.239902 -8.08225 32.940834 -21.768358 -5.882111 9.861295 0.702591 -10.936881 -0.360575 7.156212 1e-06 8.774835 -1e-06 -17.273947 17.249538 5.380022 -1.844034 2.498506 -2.50728 -10.163609 4.678949 4.621114 -20.976044 -3e-06 2e-06 -21.226305 2.451698 -3.594004 -1e-06 -5e-06 -0.0 -1.362683 2.2408 -0.746323 -21.334934 0.584909 3.008327 -13.821229 -4e-06 2e-06 -23.887194 -0.249082 -0.839482 -59.028088 2.360964 -1.25578 -0.294025 1.679689 0.833257 -14.218224 0.093213 1.300581 -34.212086 -0.287566 0.967172 -20.033236 0.964537 1.212846 -0.0 0.0 1e-06 -3.440392 0.788234 0.501655 -15.928203 -3.167313 2.99971 -6.338833 -2e-06 2e-06 -18.123461 3.648184 -4.905674 -2e-06 -1e-06 -2e-06 12.533222 13.036574 14.838499 59.46595 8.01126 19.462831 0.252687 36.239178 0.343086 8.537017 -1.81309 20.394653 2.243542 -5.255039 -3.180157 14.282896 -0.826593 6.952505 -4e-06 -12.69061 1e-06 16.329096 -17.934566 2.607821 1.665666 -1.955922 -2.878299 4.7278 -4.170589 4.993927 11.02053 4e-06 -1e-06 12.109056 -3.735717 -2.866784 0.0 -0.0 -1e-06 1.291986 -1.92855 -1.49809 14.800138 0.56747 3.86561 14.242578 -1.341734 -6.660661 19.631973 0.143929 -0.648243 50.351799 -0.938748 -6.748552 0.353028 -1.511151 -0.031941 20.222801 3.684315 2.316632 18.787283 8e-06 0.0 10.751631 -0.479867 1.397907 -2e-06 0.0 0.0 3.273809 0.305948 -0.580112 21.48682 11.830383 2.266135 8.16293 3e-06 -0.0 18.399084 -3.798985 -4.940574 4e-06 -0.0 -1e-06 5.034334 21.576462 -0.458997 -0.006562 -0.172867 3.353911 -7.914168 6.896893 -4.742332 1.671922 -1.904311 1.196898 0.0 1e-06 2e-06 -6.983982 -16.993235 -4.92891 0.005416 -0.10647 8.345317 9.318843 -3.758049 -5.096212 -1.414108 0.9662 0.686291 -0.0 0.0 -1e-06 
0.0 0.0 0.0 0.0 -0.0 0.0 -2.955779 99.934929 2.09921 0.505535 -0.001176 3.46257 0.150994 0.335674 -3.958216 -0.22159 0.123765 -6.129227 1.023407 -1.584283 13.530443 -1.510118 2.929821 -3.15325 -0.517908 0.872529 -3.53743 1.016832 -0.799998 -5.78746 7.7e-05 -2.3e-05 6e-06 0.012299 -0.003464 -0.005971 0.74634 -3.711297 -10.499843 -0.721726 3.710153 -10.485941 -23.045885 -4.471371 14.692213 -47.83643 -0.49858 28.558918 1.475232 -39.496803 -0.299567 -8.022747 32.947926 -21.760082 -5.882111 9.861293 0.702591 -10.936878 -0.360576 7.15621 0.0 8.774831 0.0 -17.264973 17.242899 5.420689 -1.844034 2.498506 -2.507279 -10.16361 4.678948 4.621112 -20.976044 -4e-06 1e-06 -21.226305 2.451698 -3.594004 -1e-06 -5e-06 -0.0 -1.362683 2.240801 -0.746324 -21.33493 0.58491 3.008323 -13.821225 -2e-06 0.0 -23.88719 -0.249082 -0.839486 -59.017071 2.354738 -1.230953 -0.294025 1.679689 0.833256 -14.218221 0.093215 1.30058 -34.212082 -0.287564 0.967169 -20.033232 0.964534 1.212844 -0.0 0.0 0.0 -3.440392 0.788234 0.501656 -15.928201 -3.167312 2.999708 -6.338832 -1e-06 1e-06 -18.123461 3.648185 -4.905676 -2e-06 -0.0 -3e-06 12.506645 13.058617 14.923243 59.430527 8.087919 19.567436 0.296944 36.124977 0.370134 8.636213 -1.723369 20.494596 2.243542 -5.255037 -3.180157 14.282896 -0.826596 6.952503 -2e-06 -12.690606 1e-06 16.321161 -17.926958 2.633383 1.665667 -1.955922 -2.878298 4.727801 -4.170588 4.993923 11.02053 1e-06 -0.0 12.109056 -3.735718 -2.866785 1e-06 0.0 -0.0 1.291986 -1.928549 -1.498089 14.800132 0.567467 3.865607 14.242577 -1.341738 -6.660656 19.631973 0.143926 -0.648245 50.391537 -0.957109 -6.723716 0.353029 -1.51115 -0.031941 20.222799 3.684308 2.316629 18.787279 5e-06 -1e-06 10.751632 -0.479871 1.397904 -2e-06 1e-06 1e-06 3.273808 0.305947 -0.580111 21.48682 11.830379 2.266132 8.16293 3e-06 -1e-06 18.399088 -3.798986 -4.940578 5e-06 0.0 -2e-06 5.018077 21.493103 -0.342736 -0.007291 -0.195487 3.065987 -7.890025 6.856577 -4.583961 1.676343 -1.909929 1.230108 -0.0 1e-06 2e-06 -6.973098 -16.910069 -4.793409 0.009632 -0.108423 8.108737 9.297059 -3.915801 -5.049083 -1.414344 0.972972 0.699975 -0.0 0.0 -1e-06 
0.0 0.0 0.0 0.0 -0.0 0.0 -2.981418 99.937416 2.108756 0.511016 0.071355 3.452823 0.130416 0.329216 -3.946097 -0.215639 0.139987 -6.132283 1.012251 -1.545864 13.554034 -1.519492 2.957694 -3.185083 -0.509491 0.847714 -3.576761 0.981913 -0.802699 -5.629274 7.7e-05 -2.3e-05 6e-06 0.012645 -0.002329 -0.011686 0.743732 -3.709764 -10.512706 -0.71834 3.710161 -10.496836 -23.097315 -4.48468 14.750311 -47.698841 -0.354184 28.521397 1.486802 -39.650681 -0.341179 -7.980197 32.907516 -21.781548 -5.882107 9.861289 0.702592 -10.936875 -0.360575 7.156209 -1e-06 8.774831 -1e-06 -17.21879 17.219137 5.469514 -1.844033 2.498506 -2.507278 -10.163602 4.678946 4.621111 -20.97603 -4e-06 3e-06 -21.226292 2.451696 -3.594002 -1e-06 -6e-06 -0.0 -1.362682 2.240799 -0.746324 -21.334923 0.584909 3.008326 -13.821218 -3e-06 3e-06 -23.88718 -0.249079 -0.839481 -58.980179 2.357359 -1.232723 -0.294025 1.679688 0.833256 -14.218215 0.093215 1.300581 -34.212059 -0.287563 0.967174 -20.033222 0.96454 1.212845 -0.0 0.0 1e-06 -3.44039 0.788233 0.501655 -15.928192 -3.167311 2.999708 -6.338828 -2e-06 1e-06 -18.123455 3.648185 -4.905671 -2e-06 -0.0 -2e-06 12.485987 13.089334 14.991827 59.406849 8.145502 19.654226 0.300168 36.032501 0.386676 8.7791 -1.722291 20.711998 2.243543 -5.255039 -3.180159 14.282897 -0.826595 6.952507 -4e-06 -12.69061 3e-06 16.309732 -17.901852 2.65851 1.665667 -1.955921 -2.8783 4.727801 -4.170589 4.993928 11.020531 3e-06 -1e-06 12.109058 -3.735717 -2.866786 1e-06 -0.0 -1e-06 1.291985 -1.92855 -1.49809 14.800136 0.567468 3.86561 14.242579 -1.341735 -6.660663 19.631977 0.143927 -0.648245 50.369617 -0.978511 -6.708214 0.353029 -1.511151 -0.031941 20.222801 3.684313 2.316633 18.787283 6e-06 1e-06 10.751633 -0.479869 1.397907 -2e-06 -0.0 -0.0 3.273809 0.305947 -0.580111 21.486828 11.830382 2.266135 8.162931 3e-06 -0.0 18.399092 -3.798987 -4.940576 5e-06 0.0 -1e-06 5.024217 21.421011 -0.305658 -0.001317 -0.205881 2.990027 -7.871988 6.834291 -4.532004 1.67846 -1.909991 1.254073 0.0 -0.0 2e-06 -6.964023 -16.810146 -4.743829 0.008394 -0.118908 8.077106 9.268912 -4.0498 -5.073834 -1.414671 0.968993 0.691459 -0.0 0.0 -1e-06 
